# xmcd
#
# Track frame offsets: 
#        150
#        18998
#        40688
#        55836
#        74042
#        94098
#        110522
#        128853
#        145345
#        165628
#        183178
#
# Disc length: 2678 seconds
#
# Revision: 0
# Processed by: cddbd v1.4PL0 Copyright (c) Steve Scherf et al.
# Submitted via: ExactAudioCopy v0.90b4
#
DISCID=960a740b
DTITLE=The Astatics - Blue Energy
DYEAR=1999
DGENRE=Blues
TTITLE0=Mailbox Blues
TTITLE1=Love Her With a Feelin'
TTITLE2=Boogie Disease
TTITLE3=Come On
TTITLE4=Blues After Daybreak
TTITLE5=Blue Energy
TTITLE6=Don't Love me Baby
TTITLE7=San Ho Say
TTITLE8=The Rambler
TTITLE9=Satisfied
TTITLE10=Gris Gris Song
EXTD=
EXTT0=
EXTT1=
EXTT2=
EXTT3=
EXTT4=
EXTT5=
EXTT6=
EXTT7=
EXTT8=
EXTT9=
EXTT10=
PLAYORDER=
